<?xml version="1.0" encoding="UTF-8" standalone="no"?>
<!-- Created with Inkscape (http://www.inkscape.org/) -->

<svg
   width="131.57269mm"
   height="143.36327mm"
   viewBox="0 0 131.57269 143.36327"
   version="1.1"
   id="svg5"
   sodipodi:docname="girl_in_wheelchair.svg"
   inkscape:version="1.1.2 (0a00cf5339, 2022-02-04)"
   xmlns:inkscape="http://www.inkscape.org/namespaces/inkscape"
   xmlns:sodipodi="http://sodipodi.sourceforge.net/DTD/sodipodi-0.dtd"
   xmlns="http://www.w3.org/2000/svg"
   xmlns:svg="http://www.w3.org/2000/svg">
  <sodipodi:namedview
     id="namedview6"
     pagecolor="#ffffff"
     bordercolor="#666666"
     borderopacity="1.0"
     inkscape:pageshadow="2"
     inkscape:pageopacity="0.0"
     inkscape:pagecheckerboard="0"
     inkscape:document-units="mm"
     showgrid="false"
     fit-margin-top="0"
     fit-margin-left="0"
     fit-margin-right="0"
     fit-margin-bottom="0"
     inkscape:zoom="2.9006173"
     inkscape:cx="278.04426"
     inkscape:cy="258.39327"
     inkscape:window-width="1920"
     inkscape:window-height="999"
     inkscape:window-x="0"
     inkscape:window-y="0"
     inkscape:window-maximized="1"
     inkscape:current-layer="svg5" />
  <defs
     id="defs2" />
  <g
     id="layer2"
     transform="matrix(3,0,0,3,-147.44187,-384.32067)">
    <path
       id="path14289"
       style="font-variation-settings:normal;opacity:1;vector-effect:none;fill:#000000;fill-opacity:1;fill-rule:evenodd;stroke:#000000;stroke-width:0.0499999;stroke-linecap:butt;stroke-linejoin:miter;stroke-miterlimit:4;stroke-dasharray:none;stroke-dashoffset:0;stroke-opacity:1;-inkscape-stroke:none;stop-color:#000000;stop-opacity:1"
       d="m 80.072049,159.62005 0.429572,-0.021 v 0.0911 l -0.11649,0.0658 z m 0.637143,0.15229 0.0021,-0.16836 0.289941,-0.13903 -0.202634,0.31459 -0.08953,-0.007 c -7.8e-5,-1e-5 1.22e-4,-1.2e-4 1.23e-4,-2e-4 z m 0.316478,-0.0505 0.122707,-0.17406 0.389765,-0.0114 z m -2.2305,-0.43511 0.167153,0.20661 -0.08064,-1.24612 z m 0.19831,-2.7378 0.158163,0.0202 -0.0093,0.66016 z m -1.141608,0.63148 0.01955,-0.32614 -1.141021,0.24234 0.01503,0.0681 z m -0.710377,1.97658 0.08829,0.005 -0.110971,-0.37271 z m -0.09293,0.18188 0.11248,0.20973 0.128947,-0.0951 -0.05351,-0.11264 z m 0.194414,-0.66423 0.470162,0.43161 -0.07713,0.0866 -0.221753,-0.0244 z m 0.684866,-0.4572 4.9e-5,0.35646 -0.281697,-0.38231 z m -0.761413,0.16083 c -0.0027,-0.0418 -0.0061,-0.22932 -0.0061,-0.22932 l 0.279083,0.0126 0.43915,0.62601 -0.0038,0.26568 z m -0.443891,-0.1543 0.256643,0.26764 0.005,0.67338 z m -1.163151,-0.16989 0.960022,0.0198 0.282857,1.0933 -0.653049,-0.0148 z m 0.267173,1.08896 h 0.142518 l -0.696402,-1.14595 -1.071456,-0.0609 z m 0.395456,0.17802 0.442152,0.43219 0.338793,-0.01 -0.137998,-0.42008 z m 0.187313,0.59758 0.363657,0.27573 0.08709,-0.0929 -0.242663,-0.18082 z m -0.21789,-0.10506 0.253983,-0.0195 -0.643785,-0.48754 -0.247896,0.007 z m -2.486564,-1.90858 0.20497,-0.006 1.658977,1.21465 h -0.24234 z m -0.181182,1.16811 1.554793,0.0391 -1.442424,-1.06872 z m 1.590178,0.81991 0.819274,-0.0666 -0.646922,-0.55013 -1.540933,-0.0219 z m 0.446339,0.20179 0.861626,0.41043 0.204115,-0.21036 -0.352456,-0.2841 z m -2.178013,0.11399 0.07643,-0.80531 1.374402,0.58719 z m -0.187211,1.55572 0.508537,0.21345 1.789448,-0.45449 0.801002,-0.89149 -1.111649,-0.48417 -1.859841,0.29867 -0.09192,0.80398 c 0,0 0.169976,-0.064 0.256852,-0.0538 0.06519,0.008 0.130446,0.0389 0.178094,0.084 0.06038,0.0572 0.105128,0.13751 0.118475,0.21961 0.0082,0.0504 3.39e-4,0.10731 -0.02627,0.15087 -0.02864,0.0469 -0.08154,0.0766 -0.131567,0.0993 -0.05379,0.0244 -0.114754,0.0427 -0.173487,0.0363 -0.09165,-0.01 -0.252132,-0.11367 -0.252132,-0.11367 z m 3.462443,-1.20887 0.134022,-0.17301 0.113607,0.10093 -0.02381,0.154 z m -0.773237,0.86561 0.654211,-0.14044 0.283454,-0.45739 -0.320514,-0.12448 z m -1.85357,0.66817 1.332518,-0.34243 -0.562242,0.66128 z m -0.883881,-0.13952 0.344395,0.13487 -0.372544,0.0765 z m -0.133265,1.0512 0.102407,-0.70812 0.620739,-0.14946 0.934405,0.40754 -0.531228,0.62528 z m 1.994117,-0.49599 0.674008,-0.82591 0.753345,-0.22366 -0.461134,0.79971 -0.636519,0.38661 z m 0.542097,0.20362 0.168902,0.0819 0.139245,-0.25158 z m -0.986996,0.25912 0.289946,-0.34806 0.30289,0.1271 z m -1.618539,0.75347 0.05296,-0.52074 0.832353,0.0842 z m 1.497058,-0.53014 0.892971,-0.38541 0.3013,0.14919 -0.197731,0.32319 -0.389538,0.0894 z m -0.432472,0.40441 0.267258,-0.28969 0.553,0.12569 z m -0.766967,0.15849 0.496854,-0.0926 0.250295,-0.26269 z m -0.341868,0.32747 0.674632,-0.21025 -0.813525,1.00247 z m -0.168137,1.25613 0.01,-0.19042 1.130554,-1.35624 1.428271,-0.29138 -0.387366,0.69719 z m -0.09071,0.92467 1.128596,0.011 1.023694,-1.80062 -2.147115,1.22319 z m -0.177742,-7.41561 0.0064,-0.0511 -0.513776,-0.25361 0.0027,0.0427 z m -0.502044,-0.45319 0.528587,0.237 0.09025,-0.8096 -0.61327,-0.0169 z m -0.01129,0.63407 0.487413,0.0146 -1.51e-4,-0.0812 -0.495605,-0.22384 z m -10e-4,0.20326 0.458499,0.0173 -0.131742,1.22499 -0.361172,0.0356 z m -0.02978,1.90114 0.289983,0.0108 0.05465,-0.51968 -0.348679,0.0571 z m 0.02694,1.34497 0.117213,-0.0157 0.0995,-0.76666 -0.253172,-0.0165 z m -0.02356,0.44064 0.07603,0.004 0.01693,-0.31425 -0.08944,0.0314 z m -0.01046,0.15198 0.09564,0.0171 -0.07325,0.63087 z m 4.911574,-1.88631 0.368189,-0.0288 -0.118155,-0.20237 -0.116842,-0.0901 z m 0.819841,1.21733 0.02703,-0.4826 -0.155175,-0.17305 z m -1.315987,-0.34219 0.385998,-0.70869 0.548547,-0.0755 0.05551,0.35663 z m -0.390785,0.78016 0.520626,0.23626 1.120598,-0.27066 -0.187306,-0.97035 -1.258271,0.55767 z m -0.238267,0.39795 0.107584,-0.19679 0.388025,0.11535 z m 0.946419,-0.0984 0.172337,0.10753 0.335534,-0.1647 z m -3.65e-4,0.18958 -0.386186,0.19326 -0.545113,-0.14095 0.728938,-0.16881 z m -1.334288,0.60993 0.246935,-0.45477 0.466371,0.12273 z m 1.768787,-0.66128 0.290055,0.13202 0.244237,-0.3921 z m -0.358502,0.22704 0.501456,0.0536 -0.349141,-0.14997 z m -2.697684,2.81869 1.88318,0.13471 1.392483,-2.74612 -0.931026,-0.0928 -1.2676,0.61197 z m -3.891079,-8.71978 0.535355,0.003 -0.134345,0.2221 z m 0.498808,1.41188 0.342673,0.0173 -0.01003,-0.56626 z m -1.257689,-0.0591 0.005,-0.50386 0.371075,-0.69227 0.580906,0.33454 -0.460449,0.86846 z m -0.04611,0.22736 0.451088,0.009 -0.374827,0.98613 -0.110988,0.0145 z m 0.754779,1.25198 0.523756,0.31719 0.259758,-0.009 0.01503,-1.53547 -0.326139,-0.0323 z m -0.05828,0.21628 0.372168,0.17398 -0.450676,0.0306 z m -0.340133,1.91459 1.176639,0.16853 0.03003,-1.12681 -0.285551,-0.0218 c 0,0 -0.04894,-0.1576 -0.04454,-0.23829 0.0045,-0.0833 0.07248,-0.23967 0.07248,-0.23967 l 0.210574,-0.007 0.0028,-0.10963 -0.157077,-0.0819 -0.795018,0.12032 c 0,0 -0.100427,0.51477 -0.135847,0.77446 -0.03448,0.2528 -0.07449,0.76179 -0.07449,0.76179 z m -1.062844,-1.50568 h 0.159086 l -0.05254,-0.62703 z m -0.153329,1.00273 0.404291,-0.0195 v -0.25374 l -0.398965,0.008 z m 0.300114,1.41164 0.154168,-0.0146 -0.0027,0.27094 z m -0.240427,-0.87652 0.436835,0.0195 -0.02312,0.62361 -0.215689,0.0237 z m 1.242198,0.18592 0.514416,0.0531 -0.429998,0.1386 z m 0.153548,0.40881 0.961276,-0.27186 0.009,1.43416 -0.368581,0.0827 z m 0.673854,1.39202 0.302176,-0.0238 0.0045,0.11084 -0.202197,0.12073 z m 0.193987,0.35598 0.109535,-0.0514 v 0.26127 z m -1.038341,-0.34713 0.208616,-0.0125 -0.266205,-0.44454 z m 0.01365,0.19597 0.282368,-0.0573 0.151731,0.26764 -0.387602,0.11602 z m 0.07312,0.52526 0.448437,-0.17596 0.572394,0.82552 -0.936516,-0.22932 z m 0.805675,1.63572 0.170556,0.0118 v 0.17835 z m 6.812063,-3.22863 h 0.113712 l -0.119414,1.94652 -1.285549,0.70405 z m -1.069663,2.74598 0.729422,0.0493 0.24203,-0.59723 z m -4.461679,0.55101 0.235228,0.21097 -0.273924,0.26438 z m 1.213916,0.8583 0.176554,0.12921 -0.337929,0.15474 z m -1.079804,0.0577 0.457999,-0.48274 0.453406,0.31853 -0.34068,0.57057 z m 0.872778,-0.81543 h 0.431996 l -0.11825,0.18582 z m 0.495017,0.25609 0.139933,-0.22549 1.110022,0.0442 -0.812779,0.4428 z m 0.695116,0.36997 0.957281,-0.51608 0.552088,0.0551 -0.46676,0.89202 -0.580176,-0.2043 z m -1.253471,0.68887 0.638751,-0.35463 0.630034,0.30366 0.780685,0.28839 -0.390189,0.38394 -0.720683,-0.0127 z m 2.922307,-1.15726 0.546338,0.0188 -0.99345,0.94462 z m -0.262004,1.06558 1.058709,-0.99917 0.116221,0.0193 -0.516229,1.17468 z m -0.558083,0.76628 0.143552,-0.34347 0.830361,0.2467 -0.06244,0.14049 z m -4.981176,-0.33303 0.47681,0.005 -0.299824,-0.55934 -0.806104,-0.79068 z m 2.743065,1.33775 c 0.138292,0.0864 0.430226,0.23295 0.430226,0.23295 l -0.273129,0.31108 -0.887209,-0.84974 0.315328,0.009 c 0,0 0.270629,0.20661 0.414784,0.29671 z m -2.063445,-0.33605 0.492162,0.004 c 0,0 0.375015,0.46023 0.569412,0.68449 0.204213,0.23559 0.626862,0.69418 0.626862,0.69418 l -0.184709,0.20331 c 0,0 -0.560948,-0.4994 -0.818562,-0.77198 -0.243605,-0.25776 -0.685165,-0.814 -0.685165,-0.814 z m 2.337295,1.02044 0.364098,-0.38013 c 0,0 0.484338,0.23133 0.734499,0.32776 0.305885,0.11791 0.934739,0.30575 0.934739,0.30575 l -0.419955,0.90373 c 0,0 -0.628787,-0.37445 -0.924391,-0.58926 -0.240758,-0.17495 -0.68899,-0.56785 -0.68899,-0.56785 z m -0.678969,0.67758 0.197329,-0.19973 c 0,0 0.463648,0.40487 0.763408,0.63113 0.29976,0.22626 1.040651,0.71547 1.040651,0.71547 l -0.122394,0.206 c 0,0 -0.700704,-0.42423 -1.013862,-0.65074 -0.313158,-0.22651 -0.865132,-0.70213 -0.865132,-0.70213 z m 5.195319,-4.04097 0.152942,0.022 -0.233561,1.20694 h -0.164407 z m -1.16163,1.10829 0.539835,-1.16024 0.464606,0.0476 -0.277635,1.2009 c -0.242436,-0.0268 -0.485295,-0.057 -0.726806,-0.0883 z m -0.2888,0.62581 0.06654,-0.134 0.867873,0.14764 z m -1.276062,2.94301 c 0,0 0.554247,0.32684 0.829771,0.45252 0.338639,0.15448 1.012176,0.36497 1.012176,0.36497 l 0.333664,-1.60426 c 0,0 -0.598688,-0.0359 -0.895133,-0.0788 -0.281267,-0.0407 -0.835668,-0.169 -0.835668,-0.169 z m -0.361423,0.77952 0.08894,-0.15685 c 0,0 0.571789,0.30064 0.863462,0.43921 0.370337,0.17594 1.124874,0.4976 1.124874,0.4976 l -0.0319,0.15989 c 0,0 -0.701077,-0.26925 -1.042053,-0.42592 -0.341447,-0.15688 -1.003323,-0.51393 -1.003323,-0.51393 z m 3.92026,-7.68913 0.02949,-0.83958 0.146725,-0.2924 0.283408,0.12416 -0.03747,0.74288 z m -0.05456,1.37562 0.370168,0.0153 0.08291,-1.41158 -0.444863,0.48471 z m 1.336355,-0.64767 0.01283,-0.3617 0.544571,0.96116 -0.01418,0.29193 z m 0.01916,0.33535 0.0043,0.45788 0.286459,0.023 z m -0.06303,1.34847 0.425809,0.0226 -0.10977,0.89343 -0.325642,0.0119 z m -1.714705,-0.16123 0.688888,0.019 5.6e-5,1.23533 -0.957303,-0.013 z m -0.325572,1.76528 0.918361,0.0131 -0.01347,0.0855 -0.924348,-0.0393 z m 1.982829,-0.0716 0.292281,5.3e-4 -0.04251,0.2941 -0.139842,-0.0134 c 0,0 -0.0094,-0.0595 -0.04309,-0.0784 -0.01454,-0.008 -0.06728,-0.0204 -0.06728,-0.0204 z m -2.359896,2.13817 c 0,0 0.731374,0.0525 1.097763,0.0605 0.414917,0.009 1.244968,-0.0142 1.244968,-0.0142 l -0.322781,2.04578 -0.887037,-0.0656 c 0,0 0.0031,-0.11296 -0.0249,-0.15855 -0.02927,-0.0477 -0.08353,-0.079 -0.136069,-0.0982 -0.05976,-0.0218 -0.126996,-0.0204 -0.190342,-0.0144 -0.02226,0.002 -0.04784,0.003 -0.06475,0.0175 -0.04401,0.0381 -0.06927,0.16029 -0.06927,0.16029 l -0.98636,-0.2499 z m 1.827223,2.87148 -0.02035,0.13472 -0.749438,-0.0533 0.02338,-0.1335 z m -2.280741,-0.28903 0.899271,0.26859 v -0.0995 l -0.890942,-0.27256 c 0.0038,0.0305 -0.0092,0.0729 -0.0083,0.10348 z m 4.277762,-5.04432 0.06792,-0.0267 0.0087,0.19345 z m -0.449797,-1.1194 0.270555,0.58999 0.171386,-0.032 -0.01381,-0.3748 -0.08264,-0.0843 h -0.157581 l -0.0024,-0.10713 z m -0.439243,0.77564 c 0.01603,-0.0474 0.09479,-0.79918 0.09479,-0.79918 l 0.148622,0.0293 0.305345,0.66368 z m 0.26774,0.54875 0.482976,-0.15144 0.304628,0.58117 -0.800558,-0.0143 z m -0.07851,-4.6087 0.156843,0.0371 0.02836,-0.15683 z m -0.611957,6.92099 c 0,0 0.500498,-0.0553 0.749133,-0.0943 0.264185,-0.0415 0.826349,-0.1448 0.826349,-0.1448 l 0.188881,2.18158 c 0,0 -0.747546,0.0876 -1.123124,0.10652 -0.322455,0.0163 -0.968576,0.006 -0.968576,0.006 z m -0.425029,2.9193 0.005,-0.12738 c 0,0 0.663382,-0.006 0.994608,-0.0218 0.41508,-0.0201 1.243195,-0.0935 1.243195,-0.0935 l 0.0073,0.10882 c 0,0 -0.792969,0.0899 -1.191135,0.11268 -0.352483,0.0202 -1.058968,0.0212 -1.058968,0.0212 z m 2.445007,-0.28251 c 0,0 0.766539,-0.14928 1.15662,-0.2563 0.336085,-0.0922 0.994476,-0.32266 0.994476,-0.32266 l 0.03028,0.12381 c 0,0 -0.69481,0.24548 -1.050756,0.33901 -0.372693,0.0979 -1.13257,0.23175 -1.13257,0.23175 z m -0.494494,-5.21442 0.107321,-0.0377 0.390673,0.62802 -0.217763,0.0992 -0.191452,-0.0265 -0.06722,-0.19238 z m 0.220423,2.31886 c 0,0 0.334327,-0.0942 0.486457,-0.15065 0.178704,-0.0663 0.527801,-0.22014 0.527801,-0.22014 l 1.063984,2.04619 c 0,0 -0.62823,0.19772 -0.926525,0.28021 -0.283982,0.0785 -0.953157,0.20856 -0.953157,0.20856 z m -0.3247,-3.21017 0.265358,0.003 0.0051,-0.10401 0.550563,0.0271 -0.669681,0.29657 z m 0.384783,0.77297 c 0,0 0.389798,-0.17676 0.553679,-0.25125 0.19555,-0.0889 0.521421,-0.24276 0.521421,-0.24276 l 0.500068,0.5704 c 0,0 -0.375609,0.22207 -0.570735,0.31924 -0.195786,0.0975 -0.6007,0.26402 -0.6007,0.26402 z m -1.80767,-3.40895 -0.0024,-0.48961 0.619019,0.7759 -0.06235,0.7461 z m 1.12246,1.47977 -0.0328,-0.66309 -0.349483,-0.38457 -0.04966,0.96357 0.04836,0.0738 z m 0.18489,-0.0637 -0.04847,-0.4302 0.386935,0.45182 z m -0.556638,-2.02441 -0.06311,0.63566 -0.602456,-0.69142 0.257884,-0.0269 z m 0.06387,0.82225 0.239121,0.28278 -0.06402,-1.03524 -0.115766,-0.0237 z m 1.735991,1.36447 -0.574437,-0.006 c -0.264661,-0.30653 -0.438832,-0.54288 -0.755245,-0.88976 l -0.07885,-1.21724 0.37004,0.0507 z m -0.813218,-2.02433 1.102984,0.17012 1.39736,1.44528 -0.501369,0.50054 -0.903772,-0.0511 z m 2.94777,2.03422 -0.171693,0.17321 h 0.326591 z m -0.149471,1.125 -0.850934,0.61376 -0.416904,-0.69104 z m -1.513416,0.12513 0.152799,-0.0938 0.271902,0.52686 z m 1.902066,1.5666 c 0,0 0.438202,-0.27992 0.646564,-0.43504 0.259829,-0.19344 0.75093,-0.61683 0.75093,-0.61683 l 1.183593,1.22188 z m 0.475244,1.12845 1.71242,0.0369 c 0,0 -0.321835,0.25651 -0.485671,0.38098 -0.166139,0.12622 -0.504217,0.37091 -0.504217,0.37091 z m -4.295727,-8.71747 0.425429,0.12423 -0.423261,0.0479 z m 0.03043,0.3227 0.338828,-0.0504 -0.158697,0.21066 z m 2.034618,2.65607 0.218098,0.0354 0.661061,0.88033 z m 0.480496,0.095 0.821256,1.06093 0.31596,-0.30598 0.382111,-0.40767 -0.257106,-0.13919 z m 1.215823,1.57084 c 0,0 0.326782,-0.29352 0.473575,-0.45634 0.119869,-0.13295 0.330727,-0.42312 0.330727,-0.42312 l 0.628012,0.45879 -0.701206,0.79447 -0.404503,-0.0407 z m 1.600166,1.75531 0.285456,-0.29145 0.324147,0.0134 c 0,0 0.158166,0.19749 0.260704,0.26857 0.120691,0.0837 0.258105,0.15716 0.403688,0.17643 0.150618,0.0199 0.311608,-0.007 0.450752,-0.0676 0.123351,-0.0541 0.268042,-0.16006 0.336602,-0.27599 0.08365,-0.14145 0.06398,-0.46279 0.06398,-0.46279 l 0.516284,0.36441 c 0,0 -0.328432,0.56569 -0.516797,0.83254 -0.192072,0.2721 -0.623451,0.78082 -0.623451,0.78082 h -0.23984 z m -0.688562,-2.78465 0.0753,-0.13307 0.925441,0.12166 -0.316251,0.47478 z m 2.669579,0.30311 1.411113,0.25661 c 0,0 -0.138737,0.55964 -0.251426,0.86072 -0.108609,0.29017 -0.409892,0.91131 -0.409892,0.91131 l -0.666964,-0.4243 c 0,0 -0.170572,-0.29145 -0.297639,-0.40382 -0.126914,-0.11224 -0.461742,-0.22491 -0.461742,-0.22491 0,0 0.245123,-0.29446 0.339197,-0.42574 0.130762,-0.18247 0.337353,-0.54987 0.337353,-0.54987 z m -7.350778,-1.76188 0.122994,-0.0972 0.221911,0.47121 -0.301378,-0.0536 z m 0.268999,-0.17296 0.541581,-0.006 0.722932,0.73193 -0.976424,-0.1732 z m 0.787522,-0.0199 0.380936,-0.005 0.649436,0.79907 -0.234794,-0.0371 z m 0.508424,-0.0356 0.306979,0.007 1.69262,1.13024 -1.207527,-0.21619 z m 3.339811,1.41672 0.05356,-0.0998 0.214151,0.12752 z m -2.721142,-1.38755 0.324763,-0.015 1.894282,1.02004 -0.158465,0.25835 -0.291658,-0.0819 z m 0.653857,-0.01 2.179158,0.012 c 0,0 -0.144522,0.29803 -0.226414,0.44184 -0.08326,0.14622 -0.268891,0.42722 -0.268891,0.42722 z m 2.867297,0.0365 0.850538,0.002 c 0,0 -0.222594,0.47195 -0.38204,0.7578 -0.108928,0.19529 -0.419637,0.6874 -0.419637,0.6874 l -0.238821,-0.0522 -0.459388,-0.25247 c 0,0 0.25962,-0.44436 0.352626,-0.60474 0.127084,-0.21915 0.296722,-0.53779 0.296722,-0.53779 z m 2.552507,-0.0332 0.920261,0.006 c 0,0 -0.05138,0.75925 -0.109109,1.10016 -0.05829,0.34423 -0.238985,0.95257 -0.238985,0.95257 l -1.388856,-0.27032 c 0,0 0.341021,-0.65664 0.472258,-0.94251 0.142509,-0.31043 0.344431,-0.8459 0.344431,-0.8459 z m -7.626527,-0.83077 -0.191246,0.18396 -0.203356,-0.19598 v -0.266 z m -0.348755,0.72257 0.02743,-0.16363 0.103257,-0.0635 0.233206,0.21908 z m 0.292206,-0.42427 0.229319,-0.21677 0.494758,0.6301 -0.358582,0.007 z m 1.13846,0.39836 -0.218404,-0.004 -0.322805,-0.40285 z m 0.259852,0.004 0.227896,0.003 -1.186063,-0.69581 z m -2.699916,-3.56671 0.421364,-0.20911 0.01646,0.18079 -0.359365,0.54572 -0.08293,-0.14356 z m 0.33447,1.33051 -0.165688,-0.17017 -0.03459,-0.48234 0.374671,-0.55772 0.02765,1.13482 z m 0.412078,0.25852 0.555468,0.13537 0.641586,-0.67862 -1.203378,0.34058 z m -0.104733,-1.62757 0.17032,-0.28868 1.821553,0.42377 -0.588986,0.75441 -1.346572,0.36299 z m 1.763924,1.96665 -0.06665,0.0804 -0.324694,-0.0776 z m -1.229323,0.37775 0.459455,0.3305 0.585157,-0.53192 -0.487389,-0.14045 -0.382746,0.031 z m 4.644063,1.26298 0.161321,-0.43053 -3.584239,-0.92675 -0.576161,0.53049 1.456694,0.83406 z m 0.685743,-0.009 0.11946,-0.29761 0.80713,0.17796 -0.04541,0.1423 z M 82.29,161.26933 l 1.914278,-0.53798 -1.527045,1.32081 -1.021659,0.0629 -0.05562,-0.0282 z m 0.154455,-0.26031 0.449456,-0.52069 0.925288,0.17329 z m 3.751205,2.22218 c 0,0 0.195387,-0.42892 0.265729,-0.65321 0.06882,-0.21943 0.151532,-0.67307 0.151532,-0.67307 l -3.912198,0.31356 -0.114745,0.11969 z m 0.443616,-1.54051 0.05438,-0.36811 -2.270562,-0.53139 -1.491742,1.24392 z m 2.95598,-0.28613 0.16405,0.001 -0.108704,-0.48226 z m -2.288272,0.19343 0.02254,-0.15186 0.571124,0.11149 z m -0.517753,1.79802 c 0,0 0.186764,-0.54614 0.267552,-0.82309 0.07267,-0.24914 0.195162,-0.75371 0.195162,-0.75371 l 0.771954,-0.0468 c 0,0 -0.158493,0.69305 -0.256456,1.03458 -0.07406,0.25821 -0.2502,0.76604 -0.2502,0.76604 z m 2.310135,0.38349 0.862214,0.003 c 0,0 -0.0033,-0.77935 -0.03321,-1.16753 -0.02603,-0.33769 -0.127138,-1.00808 -0.127138,-1.00808 l -0.245512,-0.001 c 0,0 -0.09025,0.71181 -0.163269,1.06267 -0.07804,0.37495 -0.293085,1.11094 -0.293085,1.11094 z m -4.511669,-3.14041 2.124715,-0.5912 -0.07048,1.03257 z m 0.255908,-0.23159 1.091611,-0.94927 0.7515,0.006 v 0.39356 z m 2.586087,-0.58105 0.638509,-0.14652 c 0,0 0.04491,0.57966 0.04793,0.88997 0.0026,0.26708 -0.025,0.84021 -0.025,0.84021 l -0.728959,-0.15364 c 0,0 0.02227,-0.44778 0.03355,-0.68883 0.01105,-0.23596 0.03397,-0.74119 0.03397,-0.74119 z m -0.01557,-0.38109 0.622669,-0.0502 0.0062,0.10677 -0.625507,0.14513 z m -0.01739,-0.24861 0.623851,-0.0311 -0.22833,-1.21429 -0.498147,0.45419 z m -0.353808,-1.73106 0.429975,-0.17694 0.236638,0.42426 -0.519891,0.38051 z m -0.949379,1.81897 0.547554,-0.0194 0.01856,-0.45421 z m -3.997215,0.10101 2.032108,-0.75031 -0.629965,0.68748 z m 1.753693,-0.0766 0.610571,-0.74152 1.990637,-0.86021 0.186611,0.90336 -0.794656,0.68232 z m 3.111492,-2.12894 -0.424487,-1.11149 0.841941,0.77811 -0.02101,0.18602 z m -0.969971,-0.60709 0.339487,0.89693 -1.667586,0.77114 z m -4.681421,2.78545 0.256434,-0.35773 4.128686,-3.0688 0.197956,0.41279 -1.638941,2.04046 -2.559497,1.00179 z m 3.170936,-4.75656 0.368763,0.17718 c 0,0 0.242616,0.2484 0.347022,0.38653 0.13683,0.18103 0.363265,0.57575 0.363265,0.57575 l -3.868282,2.93322 z m -4.357158,4.83581 0.338219,0.003 -0.0322,-1.20649 -0.09738,0.95557 z m 0.510138,-1.51053 0.477353,-1.22418 2.960703,-2.30039 0.175213,0.0795 -3.039878,4.57407 -0.503713,0.37538 z m 0.623244,-1.63656 0.998445,-2.5013 c 0,0 0.557857,0.1452 0.83158,0.23488 0.257206,0.0843 0.760519,0.28445 0.760519,0.28445 z m -0.08292,-1.1345 0.588021,-0.7263 -0.838878,2.13458 -0.07084,0.0426 -0.01587,-0.26664 c 0,0 0.147444,-0.20206 0.191301,-0.31761 0.06721,-0.17706 0.07336,-0.37168 0.103622,-0.55864 0.01656,-0.10231 0.04264,-0.30799 0.04264,-0.30799 z m 0.05562,-0.47565 0.769191,-0.94335 c 0,0 -0.25425,-0.0874 -0.385773,-0.11302 -0.139527,-0.0272 -0.424328,-0.0425 -0.424328,-0.0425 z m 0.259797,-1.8699 0.03107,-0.61743 1.004623,0.5708 -0.181218,0.26362 z m 1.405474,0.16484 -0.131283,0.18668 0.615039,0.18286 z m 0.552376,-0.33331 1.300178,1.08934 0.259932,-0.36742 c 0,0 -0.440907,-0.26507 -0.673343,-0.37465 -0.286991,-0.1353 -0.886767,-0.34727 -0.886767,-0.34727 z m 1.75183,0.85163 -0.263033,0.39171 0.09354,0.14883 c 0,0 0.354068,0.21698 0.52555,0.33383 0.27314,0.18612 0.800983,0.58446 0.800983,0.58446 0,0 -0.397494,-0.58364 -0.618566,-0.85835 -0.168556,-0.20945 -0.53847,-0.60048 -0.53847,-0.60048 z m 3.900022,3.36207 -0.06459,0.0465 c 0,0 0.132238,0.41288 0.1881,0.62218 0.09279,0.34767 0.243914,1.05162 0.243914,1.05162 l 0.219107,0.40204 0.519866,-0.18345 c 0,0 -0.282114,-0.66928 -0.460954,-0.98444 -0.189543,-0.33402 -0.645438,-0.95446 -0.645438,-0.95446 z m 1.213879,2.15181 -0.511598,0.18241 c 0,0 0.288766,0.70647 0.390676,1.00201 0.138009,0.40023 0.312123,1.08779 0.312123,1.08779 h 0.406694 c 0,0 -0.07401,-0.74638 -0.185002,-1.156 -0.09468,-0.34944 -0.412893,-1.11621 -0.412893,-1.11621 z m 0.642853,2.50062 -0.429429,0.005 c 0,0 0.10374,0.69624 0.14211,1.04955 0.04439,0.40868 0.06718,1.2361 0.06718,1.2361 h 0.322461 c 0,0 0.05736,-0.77169 0.03979,-1.15807 -0.01738,-0.38204 -0.14211,-1.13275 -0.14211,-1.13275 z m -0.200504,2.54196 c 0,0 -0.0899,0.69017 -0.145727,1.03302 -0.05496,0.3375 -0.186034,1.00768 -0.186034,1.00768 l 0.259413,0.0357 c 0,0 0.162462,-0.66487 0.215493,-1.0051 0.05458,-0.35024 0.104386,-1.0604 0.104386,-1.0604 z m -0.436666,2.32338 c 0,0 -0.230277,0.71618 -0.352949,1.03404 -0.137525,0.35634 -0.430982,0.98599 -0.430982,0.98599 l 0.161232,0.0946 c 0,0 0.368027,-0.61479 0.519348,-0.95344 0.156054,-0.34925 0.396356,-1.10329 0.396356,-1.10329 z m -0.915188,2.17971 c 0,0 -0.273378,0.48205 -0.422198,0.71106 -0.150191,0.23113 -0.474906,0.66922 -0.474906,0.66922 l 0.22996,0.0196 c 0,0 0.2941,-0.38299 0.418578,-0.56328 0.169646,-0.2457 0.453721,-0.71985 0.453721,-0.71985 z m -1.777153,2.33061 c 0,-1e-5 -0.410673,0.43766 -0.636654,0.6382 -0.231214,0.20518 -0.732772,0.56844 -0.732772,0.56844 l 0.0646,0.0966 c 0,0 0.535731,-0.31801 0.771012,-0.51314 0.267485,-0.22183 0.753959,-0.72037 0.753959,-0.72037 l 0.0067,-0.0605 z m -3.504552,2.5227 -0.05956,-0.1107 c 0,0 0.615603,-0.26288 0.919146,-0.42639 0.370679,-0.19967 1.09161,-0.67426 1.09161,-0.67426 l 0.05096,0.0819 c 0,0 -0.74553,0.4764 -1.080508,0.66699 -0.334976,0.19059 -0.92165,0.46246 -0.921647,0.46246 z m -3.746963,-36.95344 v -0.66951 c 0,0 0.01511,-0.23589 0.07514,-0.33228 0.05544,-0.089 0.15952,-0.13657 0.244803,-0.19759 0.07144,-0.0511 0.138464,-0.11626 0.222848,-0.14066 0.09187,-0.0266 0.286893,0 0.286893,0 l 0.108598,0.17852 c 0,0 -0.06798,0.30959 -0.04348,0.46248 0.02466,0.1539 0.187057,0.42854 0.187057,0.42854 0,0 -0.08321,0.19308 -0.07379,0.29353 0.0118,0.12593 0.159303,0.3444 0.159303,0.3444 0,0 -0.0739,0.23277 -0.07295,0.35288 0.0011,0.11912 0.06481,0.23037 0.07787,0.34877 0.0053,0.0483 0.01529,0.0997 0,0.14589 -0.02815,0.085 -0.16034,0.21544 -0.16034,0.21544 0,0 -0.248407,-0.0914 -0.329957,-0.18822 -0.06891,-0.0819 -0.08926,-0.19672 -0.109217,-0.30184 -0.01865,-0.0983 0.01614,-0.20298 -0.0084,-0.29994 -0.02902,-0.11459 -0.08059,-0.22889 -0.159975,-0.31647 -0.0487,-0.0537 -0.126323,-0.0722 -0.183613,-0.11669 -0.07975,-0.0619 -0.220793,-0.20725 -0.220793,-0.20725 z M 63.11782,147.66502 v -0.95743 c 0,0 0.122073,-0.17917 0.205763,-0.24546 0.145328,-0.11512 0.289634,-0.1926 0.458333,-0.26949 0.105569,-0.0481 0.246639,-0.0902 0.360471,-0.11264 0.102814,-0.0202 0.314359,0 0.314359,0 l 8.931137,0.55305 c 0,0 -0.100695,0.18743 -0.186867,0.2417 -0.0851,0.0536 -0.198924,0.0335 -0.294984,0.0633 -0.144798,0.0449 -0.304876,0.0749 -0.420695,0.17272 -0.0636,0.0537 -0.116999,0.13002 -0.132183,0.21186 -0.02172,0.11706 0.08693,0.23317 0.06778,0.35067 -0.01934,0.11861 -0.177284,0.31394 -0.177284,0.31394 0,0 -0.217462,-0.14914 -0.342276,-0.1521 -0.126034,-0.003 -0.352507,0.13703 -0.352507,0.13703 z m -0.532927,17.82203 2.438826,0.14443 c 0.195498,0.0116 0.394071,0.0562 0.570085,0.14206 0.208576,0.10174 0.402865,0.24808 0.548513,0.42875 0.15068,0.18691 0.240583,0.42302 0.356565,0.63323 0.134025,0.24291 0.252873,0.48453 0.397693,0.72117 0.144219,0.23566 0.261715,0.48885 0.425892,0.71107 0.136175,0.18432 0.294875,0.35203 0.459986,0.51095 0.171299,0.16488 0.547941,0.45664 0.547941,0.45664 0,0 0.467114,0.81304 0.743736,1.19038 0.502235,0.6851 1.047163,1.34444 1.654799,1.93805 0.482825,0.47168 1.570244,1.27859 1.570244,1.27859 0,0 0.885143,0.60002 1.362546,0.83718 0.841513,0.41803 1.7135,0.80209 2.626937,1.02237 1.145516,0.27625 2.33852,0.33718 3.516646,0.36039 1.043606,0.0206 2.102035,0.01 3.125271,-0.19629 1.049028,-0.21142 2.073421,-0.5796 3.031869,-1.05556 0.914736,-0.45426 1.768946,-1.04013 2.551387,-1.69654 0.468924,-0.39339 1.267093,-1.32902 1.267093,-1.32902 0,0 0.277526,0.003 0.401619,-0.0494 0.15658,-0.0667 0.312885,-0.17373 0.396068,-0.32221 0.105785,-0.18882 0.08641,-0.64352 0.08641,-0.64352 0,0 0.737441,-1.22337 1.039675,-1.86905 0.323572,-0.69126 0.627779,-1.39879 0.823624,-2.13648 0.253685,-0.95556 0.419124,-1.94393 0.446302,-2.93222 0.02993,-1.0882 -0.0678,-2.1902 -0.313227,-3.25078 -0.244774,-1.05775 -0.628484,-2.09403 -1.143606,-3.04975 -0.598406,-1.11024 -1.361853,-2.14161 -2.22898,-3.05748 -0.582512,-0.61526 -1.265187,-1.13573 -1.969061,-1.60735 -0.803764,-0.53855 -2.552668,-1.3815 -2.552668,-1.3815 0,0 -0.870349,-0.6097 -1.336482,-0.86229 -0.445492,-0.24141 -1.387856,-0.6201 -1.387856,-0.6201 0,0 0.295775,-0.68654 0.381992,-1.04833 0.05215,-0.21884 0.0948,-0.4457 0.07976,-0.67016 -0.01318,-0.19658 -0.10136,-0.38082 -0.147524,-0.57235 -0.04922,-0.20419 -0.121161,-0.40546 -0.137983,-0.61482 -0.02724,-0.33896 0.02798,-0.67992 0.0616,-1.01831 0.03991,-0.40173 0.11806,-0.79883 0.166146,-1.19966 0.04855,-0.40468 0.0419,-0.81716 0.123494,-1.21649 0.06359,-0.31122 0.217575,-0.59909 0.283387,-0.90985 0.06554,-0.30949 0.06403,-0.62966 0.109326,-0.94276 0.04734,-0.32721 0.12804,-0.64925 0.169664,-0.97724 0.0366,-0.28844 0.09788,-0.57999 0.07019,-0.86942 -0.01693,-0.1771 -0.05255,-0.36102 -0.143044,-0.5142 -0.06255,-0.10588 -0.165738,-0.18363 -0.263586,-0.25811 -0.06134,-0.0467 -0.199964,-0.11619 -0.199964,-0.11619 l 0.02005,-0.26205 c 0,0 0.268433,0.007 0.389004,0.0589 0.08231,0.0352 0.130358,0.12861 0.212442,0.16436 0.103132,0.0449 0.221184,0.0671 0.332997,0.0548 0.106751,-0.0118 0.191949,-0.13066 0.29886,-0.1204 0.102843,0.01 0.169494,0.11896 0.260212,0.1684 0.07956,0.0434 0.15726,0.10833 0.247806,0.11175 0.116639,0.004 0.212463,-0.12132 0.329171,-0.11943 0.101536,0.002 0.196075,0.0604 0.282869,0.11314 0.0651,0.0395 0.0986,0.13327 0.17309,0.14916 0.09572,0.0204 0.184428,-0.0702 0.281297,-0.0842 0.08628,-0.0125 0.178033,-0.0241 0.261527,0.001 0.09203,0.0276 0.169016,0.0944 0.241195,0.15788 0.05245,0.0461 0.06647,0.16057 0.136281,0.15909 0.107238,-0.002 0.159301,-0.15331 0.198805,-0.25303 0.04582,-0.11566 0.03295,-0.37177 0.03295,-0.37177 0,0 0.247383,0.0286 0.354584,0.0861 0.09886,0.053 0.13811,0.20209 0.247161,0.22835 0.106489,0.0256 0.316399,-0.0887 0.316399,-0.0887 0,0 0.20983,-0.0654 0.312079,-0.0417 0.107682,0.0249 0.197588,0.1059 0.275939,0.18386 0.04479,0.0446 0.04305,0.15077 0.105897,0.1572 0.117221,0.012 0.232264,-0.13108 0.252777,-0.24711 l 0.09537,-0.53943 c 0,0 0.04692,-0.26654 -0.009,-0.38038 -0.04387,-0.0893 -0.134379,-0.16813 -0.231881,-0.188 l -0.652587,-0.13297 -3.24554,-0.5403 -0.150495,0.14023 h -0.459282 c 0,0 0.02784,-0.21045 -0.0046,-0.30779 -0.03918,-0.11755 -0.218538,-0.3007 -0.218538,-0.3007 0,0 0.112562,-0.0931 0.140912,-0.15762 0.05314,-0.12093 0.06726,-0.26532 0.03898,-0.39434 -0.01887,-0.086 -0.06315,-0.17507 -0.133578,-0.22794 -0.06547,-0.0491 -0.238119,-0.0601 -0.238119,-0.0601 0,0 0.09119,-0.0901 0.105971,-0.14937 0.03176,-0.12723 -0.0052,-0.267 -0.05014,-0.39019 -0.0353,-0.0968 -0.167222,-0.25987 -0.167222,-0.25987 l -0.13653,-0.10831 c 0,0 0.04269,-0.31636 0.02952,-0.47418 -0.0077,-0.0928 -0.01405,-0.19318 -0.06336,-0.27223 -0.04128,-0.0662 -0.181362,-0.14788 -0.181362,-0.14788 0,0 0.08172,-0.18563 0.07483,-0.28294 -0.0087,-0.12229 -0.07989,-0.23378 -0.143217,-0.33875 -0.05437,-0.0901 -0.163996,-0.14547 -0.19994,-0.2444 -0.0292,-0.0804 -0.02186,-0.17315 -0.0029,-0.25654 0.01921,-0.0846 0.101372,-0.14769 0.115059,-0.23332 0.0177,-0.11072 2.65e-4,-0.23152 -0.04733,-0.33303 -0.02492,-0.0531 -0.118141,-0.13038 -0.118141,-0.13038 0,0 0.133286,-0.15305 0.158564,-0.2478 0.04337,-0.16259 0.01844,-0.34144 -0.02413,-0.50424 -0.02265,-0.0866 -0.06699,-0.16817 -0.120155,-0.2402 -0.04165,-0.0564 -0.152066,-0.14541 -0.152066,-0.14541 0,0 0.04973,-0.27355 0.02667,-0.40781 -0.03341,-0.19449 -0.134507,-0.37333 -0.233559,-0.54401 -0.153392,-0.26432 -0.353943,-0.49928 -0.552011,-0.73201 -0.156935,-0.1844 -0.311933,-0.37521 -0.502589,-0.52448 -0.192923,-0.15104 -0.428172,-0.23859 -0.637243,-0.36634 -0.184862,-0.11296 -0.344173,-0.27313 -0.54532,-0.3536 -0.280122,-0.11206 -0.588304,-0.15031 -0.889534,-0.16721 -0.316691,-0.0178 -0.636371,0.0164 -0.948979,0.0701 -0.193085,0.0332 -0.38355,0.086 -0.566989,0.1548 -0.441449,0.16554 -0.874006,0.36529 -1.272966,0.61651 -0.308083,0.194 -0.629893,0.39393 -0.854133,0.68075 -0.183324,0.23449 -0.253621,0.53867 -0.371596,0.81193 -0.110972,0.25704 -0.250447,0.50599 -0.316138,0.77814 -0.05476,0.22686 -0.04171,0.46488 -0.06138,0.69742 -0.01238,0.14637 -0.07345,0.29728 -0.03566,0.43923 0.02674,0.10042 0.139348,0.15996 0.176397,0.25705 0.06005,0.15734 0.06434,0.50112 0.06434,0.50112 0,0 -0.2208,0.27707 -0.31437,0.42702 -0.08947,0.14338 -0.194382,0.28531 -0.234649,0.44944 -0.02082,0.0848 -0.03261,0.18102 0,0.26206 0.03338,0.083 0.102828,0.16012 0.18578,0.19349 0.125817,0.0506 0.406506,-0.0166 0.406506,-0.0166 l 0.0467,0.34118 c 0.0081,0.0593 -0.02408,0.12497 2.3e-4,0.17972 0.02913,0.0656 0.159531,0.14446 0.159531,0.14446 0,0 -0.129943,0.12916 -0.12101,0.20923 0.01003,0.0898 0.121962,0.13339 0.184113,0.19899 0.05924,0.0625 0.179935,0.18548 0.179935,0.18548 0,0 -3.7e-5,0.29378 0.05277,0.42718 0.05624,0.14208 0.145256,0.28251 0.27042,0.37017 0.164888,0.11548 0.380339,0.14279 0.580046,0.16809 0.291068,0.0369 0.879795,-0.0264 0.879795,-0.0264 l 0.265298,0.93675 c 0,0 -0.166227,-0.0762 -0.2359,-0.0376 -0.04274,0.0237 -0.04514,0.0875 -0.05734,0.13485 -0.01577,0.0611 0.01773,0.13736 -0.01942,0.18842 -0.03797,0.0522 -0.113985,0.0649 -0.177138,0.0782 -0.07447,0.0157 -0.15222,0 -0.22833,0 -0.05884,0 -0.127567,-0.0326 -0.176517,0 -0.05523,0.0368 -0.07418,0.11752 -0.07653,0.18386 -0.003,0.0847 0.0264,0.17615 0.08087,0.2411 0.0352,0.042 0.113959,0.033 0.144301,0.0786 0.01701,0.0256 0.02196,0.0636 0.0094,0.0916 -0.01871,0.0417 -0.07005,0.0604 -0.111215,0.0803 -0.06143,0.0297 -0.147857,0.008 -0.196985,0.0556 -0.06573,0.0633 -0.0699,0.17046 -0.08409,0.26064 -0.01527,0.0971 -0.0031,0.19666 0,0.29491 0.0033,0.10445 0.03976,0.21024 0.02005,0.31287 -0.01418,0.0739 -0.05482,0.14144 -0.0968,0.20386 -0.07077,0.10523 -0.154953,0.20511 -0.256741,0.28075 -0.07188,0.0534 -0.200105,0.0373 -0.242123,0.11639 -0.02974,0.056 -0.0016,0.1319 0.02763,0.18812 0.06748,0.12963 0.318752,0.301 0.318752,0.301 0,0 -0.236215,0.30458 -0.356566,0.4551 -0.103955,0.13002 -0.230301,0.24406 -0.315709,0.38695 -0.06213,0.10394 -0.130127,0.21481 -0.139165,0.33557 -0.0088,0.11785 0.03806,0.23584 0.08555,0.34405 0.0263,0.0599 0.108194,0.16392 0.108194,0.16392 0,0 -0.145206,0.24394 -0.17508,0.38024 -0.01053,0.048 0,0.14737 0,0.14737 l -0.784106,1.00705 -8.338455,-0.15744 c 0,0 -0.342948,0.003 -0.509191,0.0394 -0.201202,0.0444 -0.403296,0.10864 -0.579141,0.21602 -0.0776,0.0474 -0.201544,0.18382 -0.201544,0.18382 l -0.114985,0.50365 c 0,0 -0.441801,0.0471 -0.649906,0.11923 -0.317088,0.10991 -0.651206,0.23463 -0.890263,0.47017 -0.113077,0.11141 -0.160554,0.27436 -0.228623,0.41777 -0.05722,0.12056 -0.150572,0.37096 -0.150572,0.37096 0,0 -0.308824,0.2653 -0.414517,0.43561 -0.13979,0.22525 -0.2056,0.4906 -0.272908,0.74702 -0.06017,0.2292 -0.115472,0.70147 -0.115472,0.70147 l -0.275251,3.73569 c 0,0 -0.458385,0.13785 -0.671296,0.24455 -0.189518,0.095 -0.376899,0.20393 -0.532024,0.3484 -0.148722,0.13851 -0.277286,0.3039 -0.369395,0.48506 -0.107077,0.2106 -0.13988,0.45143 -0.202602,0.67921 -0.09156,0.33253 -0.253492,1.00318 -0.253492,1.00318 l -0.548029,2.5858 c 0,0 -0.414046,0.3395 -0.564748,0.55666 -0.136578,0.19681 -0.218723,0.42841 -0.293518,0.65599 -0.07841,0.23859 -0.160255,0.7362 -0.160255,0.7362 0,0 -0.3027,0.28116 -0.405974,0.45673 -0.150871,0.25648 -0.295011,0.84254 -0.295011,0.84254 l -1.315085,3.50096 c 0,0 -0.457409,0.0174 -0.668475,0.0956 -0.275511,0.1021 -0.521404,0.28125 -0.743175,0.47399 -0.118263,0.10278 -0.305538,0.35722 -0.305538,0.35722 0,0 -0.225229,0.0464 -0.324757,0.10056 -0.103537,0.0564 -0.271209,0.22699 -0.271209,0.22699 l -0.649417,-0.24103 -0.214831,0.078 c 0,0 -0.449911,-0.22062 -0.692833,-0.26963 -0.120986,-0.0244 -0.264766,-0.0743 -0.370141,-0.01 -0.126715,0.0773 -0.193067,0.40123 -0.193067,0.40123 0,0 -0.132104,0.48774 -0.169127,0.73709 -0.02008,0.13523 -0.02838,0.40916 -0.02838,0.40916 l -0.517887,0.47186 c -0.114557,0.10437 -0.107128,0.45241 -0.107128,0.45241 0,0 -0.01842,0.21505 0.03447,0.30115 0.06085,0.0991 0.180028,0.15791 0.291164,0.1921 l 3.445176,1.05977 c 0,0 -0.32104,-0.0227 -0.476517,0.01 -0.162113,0.0341 -0.330766,0.0856 -0.459002,0.19052 -0.120091,0.0982 -0.260191,0.38588 -0.260191,0.38588 l -2.825909,-0.72316 c -0.145203,-0.0372 -0.29429,-0.0785 -0.443986,-0.0711 -0.13112,0.007 -0.263925,0.0407 -0.380797,0.10052 -0.07647,0.0391 -0.169994,0.0828 -0.199109,0.16357 l -0.17399,0.48292 -0.02413,0.46203 0.142393,0.0858 0.283935,0.48902 0.835827,0.22454 0.04111,0.20749 2.879728,0.84496 -0.06762,0.18614 c 0,0 -0.03717,0.21964 0.02241,0.3005 0.06519,0.0885 0.197993,0.10507 0.306756,0.12081 0.07686,0.0111 0.232074,-0.0204 0.232074,-0.0204 l 0.0423,-0.1913 h 0.213608 l 0.20283,-0.58982 c 0,0 0.206846,-0.0959 0.266226,-0.18657 0.04407,-0.0673 -0.0082,-0.21523 0.0021,-0.29498 0.0141,-0.10857 0.06486,-0.26934 0.06486,-0.26934 0,0 0.323678,0.15365 0.496819,0.19404 0.151611,0.0354 0.309729,0.0347 0.465317,0.0401 0.257191,0.009 0.514721,-0.005 0.771922,-0.0131 0.380008,-0.0126 0.76036,-0.0248 1.139251,-0.0565 0.36645,-0.0307 1.095594,-0.12933 1.095594,-0.12933 0,0 0.0983,0.17603 0.173099,0.24057 0.111408,0.0961 0.251391,0.1599 0.392221,0.20256 0.119687,0.0362 0.372837,0.0417 0.372837,0.0417 0,0 0.01847,0.74085 0.112972,1.09562 0.10283,0.38607 0.26828,0.76073 0.486413,1.09546 0.325234,0.49908 0.724482,0.96604 1.201343,1.32306 0.37927,0.28395 0.818184,0.50946 1.278784,0.62047 0.460481,0.11098 0.952916,0.10474 1.42068,0.0302 0.555768,-0.0886 1.111129,-0.26837 1.593199,-0.55876 0.44,-0.26505 0.829736,-0.63075 1.130639,-1.04706 0.338921,-0.46891 0.604861,-1.01224 0.720344,-1.57918 0.128971,-0.63314 0.0896,-1.30701 -0.05051,-1.93777 -0.108434,-0.48818 -0.319426,-0.96096 -0.599498,-1.37525 -0.260461,-0.38528 -0.602009,-0.72171 -0.979037,-0.99397 -0.32139,-0.23208 -0.690581,-0.40068 -1.066771,-0.52571 -0.263253,-0.0875 -0.559435,-0.13674 -0.818206,-0.15215 -0.258773,-0.0154 -0.721622,0.0469 -0.721622,0.0469 0,0 -0.07468,-0.43589 -0.154842,-0.64033 -0.129026,-0.32905 -0.517744,-0.92534 -0.517744,-0.92534 z m 0.504291,-9.79395 -0.0093,0.5178 1.376659,0.0315 5.29e-4,-0.13953 z m -0.0078,1.46038 c 0,0 -0.01463,0.37893 -0.02273,0.56844 -0.0096,0.2242 -0.01185,0.44919 -0.03049,0.67282 -0.02188,0.26278 -0.0956,0.78497 -0.0956,0.78497 l 0.505394,0.0693 c 0.04801,0.006 0.08019,0.055 0.116274,0.0873 0.0369,0.0331 0.0928,0.0598 0.101801,0.10852 0.02164,0.11677 -0.07552,0.22682 -0.134874,0.32969 -0.06802,0.11789 -0.113591,0.32798 -0.249595,0.32298 l -0.523486,-0.0201 c 0,0 -0.07804,0.44887 -0.125574,0.67179 -0.03518,0.16502 -0.117819,0.49248 -0.117819,0.49248 l 0.583425,-0.008 c 0.133776,-0.002 0.184433,0.2233 0.183454,0.35709 -7.94e-4,0.0986 -0.07979,0.18216 -0.139012,0.26096 -0.06262,0.0833 -0.120047,0.21807 -0.224274,0.21807 H 62.39409 l -0.05219,0.13798 2.830316,0.20154 c 0.148582,0.0106 0.293571,0.0535 0.43615,0.0966 0.146373,0.0443 0.29106,0.0971 0.427881,0.16537 0.119277,0.0596 0.234207,0.12966 0.339514,0.21136 0.104013,0.0807 0.285255,0.27336 0.285255,0.27336 0,0 -0.02183,-0.70063 0.0026,-1.04955 0.02209,-0.31588 0.130225,-0.94102 0.130225,-0.94102 0,0 -0.04926,-0.996 -0.02016,-1.49293 0.03318,-0.56656 0.100867,-1.13365 0.221173,-1.68827 0.04428,-0.20414 0.183451,-0.59893 0.183451,-0.59893 l -0.341063,-0.0274 0.08475,0.43253 v 0.3491 l -0.08733,0.46974 -0.422714,1.28157 c -0.03235,0.0981 0.01262,0.20778 0.03979,0.30748 0.02403,0.0881 0.07672,0.16586 0.108003,0.25166 0.03376,0.0927 0.09168,0.18469 0.08578,0.28319 -0.0079,0.13261 -0.0695,0.26774 -0.160197,0.36484 -0.06794,0.0727 -0.165772,0.12669 -0.264584,0.13849 -0.140237,0.0167 -0.296293,-0.0204 -0.411342,-0.10232 -0.114652,-0.0816 -0.181057,-0.22221 -0.230479,-0.35398 -0.03634,-0.0969 -0.04661,-0.20403 -0.04341,-0.30748 0.0038,-0.12466 0.07493,-0.36639 0.07493,-0.36639 l 0.194305,-0.38292 -1.137915,-0.78445 c 0,0 -0.196395,0.11394 -0.298691,0.0935 -0.0925,-0.0184 -0.179951,-0.0947 -0.21704,-0.18139 -0.03935,-0.092 0.01963,-0.29972 0.01963,-0.29972 l 0.42168,-0.85886 0.02997,-0.47594 z m 2.155941,0.86403 -0.224277,0.40617 0.928627,0.68317 0.303855,-0.98702 z m -2.93729,4.91443 -0.0083,0.17828 -0.150379,0.19017 0.57826,0.0754 -0.03565,1.10485 1.489313,0.14469 c 0,0 0.635604,0.0642 0.946195,0.13436 0.244584,0.0553 0.491101,0.1176 0.717786,0.22479 0.213045,0.10074 0.411332,0.23477 0.591179,0.38706 0.228063,0.19311 0.608233,0.65887 0.608233,0.65887 0,0 -0.117804,-0.39943 -0.157615,-0.60358 -0.04061,-0.20826 -0.08216,-0.63148 -0.08216,-0.63148 0,0 -0.310539,-0.6515 -0.529164,-0.93535 -0.150982,-0.19602 -0.318046,-0.39275 -0.531236,-0.51831 -0.173376,-0.10214 -0.380492,-0.13653 -0.57826,-0.17363 -0.396325,-0.0743 -1.206127,-0.0951 -1.206127,-0.0951 z m 18.75656,-3.05512 0.717023,-0.3279 1.558485,-0.0348 -0.554921,0.72655 z m 1.958855,0.42338 0.642443,-0.79293 2.048798,-0.0471 -1.21421,1.0609 -0.250449,0.0619 z m -0.36249,10.47205 0.293297,0.0166 v -0.12379 l 1.86671,0.0862 0.751522,0.88203 c 0,0 -0.634229,0.40295 -0.961741,0.58666 -0.285373,0.16007 -0.924464,0.46455 -0.924464,0.46455 z" />
  </g>
</svg>
